<?xml version="1.0" encoding="utf-8"?>
<!-- Generator: Adobe Illustrator 23.0.1, SVG Export Plug-In . SVG Version: 6.00 Build 0)  -->
<svg version="1.1" id="Layer_1" xmlns="http://www.w3.org/2000/svg" xmlns:xlink="http://www.w3.org/1999/xlink" x="0px" y="0px"
	 viewBox="0 0 7.7 8.5" style="enable-background:new 0 0 7.7 8.5;" xml:space="preserve">
<style type="text/css">
	.st0{fill:#444444;}
</style>
<path class="st0" d="M1,1.9c0.1,0.6,0.2,0.7,0.2,1.3c0,0.4-0.7,0.7-0.7,0.7v0.5c0,0,0.7,0.3,0.7,0.7c0,0.6-0.1,0.7-0.2,1.3
	c-0.1,1,0.4,1.4,0.8,1.4s1,0,1,0V6.9C2.8,6.9,2,7,2,6.5C2,6,2.1,6,2.1,5.1c0-0.4-0.2-0.7-0.5-1c0.3-0.2,0.5-0.5,0.5-0.9
	C2,2.3,2,2.3,2,1.9c0-0.5,0.8-0.5,0.8-0.5V0.5c0,0-0.5,0-1,0S0.9,1,1,1.9z"/>
<path class="st0" d="M6.6,1.9C6.5,2.5,6.4,2.7,6.4,3.3c0,0.4,0.7,0.7,0.7,0.7v0.5c0,0-0.7,0.3-0.7,0.7c0,0.6,0.1,0.7,0.2,1.3
	c0.1,1-0.4,1.4-0.8,1.4s-1,0-1,0V6.9c0,0,0.8,0.1,0.8-0.5C5.6,6,5.5,6,5.4,5.1c0-0.4,0.2-0.7,0.5-1C5.7,3.9,5.4,3.7,5.4,3.3
	c0.1-0.9,0.2-0.9,0.2-1.3c0-0.5-0.8-0.5-0.8-0.5V0.5c0,0,0.5,0,1,0S6.7,1,6.6,1.9z"/>
</svg>
